<svg width="714" height="715" viewBox="0 0 714 715" fill="none" xmlns="http://www.w3.org/2000/svg">
<path d="M230.686 95.9891L587.622 252.398C618.774 266.05 623.472 308.311 596.069 328.46L282.166 559.404C254.769 579.56 215.821 562.495 212.072 528.702L169.039 141.357C165.284 107.534 199.534 82.3374 230.686 95.9891Z" fill="#FFF1C9"/>
<path d="M114.012 576.675H635.681C636.06 576.675 636.423 576.525 636.691 576.257C636.959 575.989 637.109 575.626 637.109 575.247C637.109 574.869 636.959 574.505 636.691 574.238C636.423 573.97 636.06 573.819 635.681 573.819H114.012C113.633 573.819 113.27 573.97 113.002 574.238C112.734 574.505 112.584 574.869 112.584 575.247C112.584 575.626 112.734 575.989 113.002 576.257C113.27 576.525 113.633 576.675 114.012 576.675Z" fill="#262626"/>
<path d="M309.712 292.782L291.905 233.934C291.656 233.112 291.23 232.356 290.656 231.718C290.082 231.08 289.374 230.577 288.583 230.244C287.792 229.912 286.937 229.757 286.08 229.793C285.222 229.828 284.383 230.053 283.622 230.45L264.401 240.446C263.57 240.878 262.856 241.504 262.318 242.271C261.78 243.039 261.435 243.924 261.312 244.853C261.188 245.781 261.29 246.726 261.61 247.607C261.929 248.488 262.455 249.279 263.145 249.913L309.712 292.782Z" fill="#D3B970"/>
<path d="M314.274 290.476L263.466 258.845C262.677 258.355 261.788 258.048 260.864 257.948C259.941 257.848 259.007 257.956 258.131 258.266C257.255 258.576 256.46 259.079 255.806 259.738C255.151 260.397 254.653 261.195 254.348 262.073L247.608 281.586C247.288 282.513 247.193 283.502 247.33 284.473C247.467 285.443 247.832 286.367 248.396 287.169C248.96 287.971 249.706 288.627 250.574 289.084C251.441 289.541 252.404 289.785 253.384 289.797L314.274 290.476Z" fill="#D3B970"/>
<path d="M386.117 399.368C362.461 399.368 343.284 380.191 343.284 356.535C343.284 332.879 362.461 313.702 386.117 313.702C409.773 313.702 428.95 332.879 428.95 356.535C428.95 380.191 409.773 399.368 386.117 399.368Z" fill="#262626"/>
<path d="M478.301 170.338H646.506C657.192 170.338 665.855 179.001 665.855 189.687V264.157C665.855 274.844 657.192 283.507 646.506 283.507H478.301C467.615 283.507 458.952 274.844 458.952 264.157V189.687C458.952 179.001 467.615 170.338 478.301 170.338Z" fill="white"/>
<path d="M478.301 284.935H646.498C652.009 284.929 657.292 282.738 661.189 278.841C665.086 274.944 667.277 269.661 667.283 264.15V189.694C667.277 184.184 665.086 178.9 661.189 175.004C657.292 171.107 652.009 168.916 646.498 168.91H478.301C472.792 168.917 467.51 171.11 463.615 175.006C459.72 178.903 457.53 184.185 457.524 189.694V264.15C457.53 269.66 459.72 274.942 463.615 278.838C467.51 282.735 472.792 284.927 478.301 284.935ZM646.498 171.766C651.252 171.77 655.81 173.66 659.172 177.021C662.533 180.383 664.423 184.941 664.427 189.694V264.15C664.423 268.904 662.533 273.462 659.172 276.824C655.81 280.185 651.252 282.075 646.498 282.079H478.301C473.549 282.073 468.993 280.182 465.633 276.821C462.273 273.46 460.384 268.903 460.38 264.15V189.694C460.384 184.942 462.273 180.385 465.633 177.024C468.993 173.663 473.549 171.772 478.301 171.766H646.498Z" fill="#262626"/>
<path d="M628.092 208.523C628.464 208.523 628.822 208.377 629.089 208.117C629.356 207.857 629.51 207.503 629.52 207.13C629.655 201.318 627.506 197.848 625.671 195.956C623.647 193.816 620.861 192.559 617.917 192.458H617.838C614.995 192.518 612.29 193.698 610.313 195.742C608.442 197.62 606.222 201.118 606.293 207.109C606.293 207.488 606.444 207.851 606.711 208.119C606.979 208.386 607.342 208.537 607.721 208.537C608.1 208.537 608.463 208.386 608.731 208.119C608.999 207.851 609.149 207.488 609.149 207.109C609.092 202.111 610.848 199.255 612.334 197.791C613.785 196.294 615.761 195.419 617.846 195.349H617.896C620.069 195.446 622.119 196.389 623.608 197.977C625.685 200.119 626.742 203.275 626.649 207.095C626.644 207.282 626.677 207.469 626.744 207.644C626.812 207.819 626.913 207.979 627.042 208.115C627.171 208.251 627.326 208.36 627.498 208.436C627.669 208.512 627.854 208.554 628.042 208.558L628.092 208.523Z" fill="#262626"/>
<path d="M597.39 263.565H638.216C639.216 263.565 640.204 263.351 641.115 262.937C642.025 262.524 642.837 261.921 643.495 261.168C644.154 260.416 644.644 259.532 644.933 258.574C645.222 257.617 645.303 256.609 645.17 255.618L639.458 213.178C639.233 211.493 638.404 209.948 637.125 208.829C635.846 207.71 634.204 207.094 632.504 207.095H604.044C602.372 207.095 600.755 207.692 599.484 208.778C598.213 209.865 597.371 211.369 597.111 213.021L590.478 255.468C590.32 256.467 590.381 257.489 590.655 258.463C590.93 259.436 591.412 260.339 592.069 261.108C592.726 261.878 593.542 262.496 594.46 262.92C595.379 263.344 596.378 263.564 597.39 263.565Z" fill="#FFE18B"/>
<path d="M486.47 200.619H563.831C566.903 200.619 569.394 203.109 569.394 206.181V210.5C569.394 213.572 566.903 216.062 563.831 216.062H486.47C483.398 216.062 480.908 213.572 480.908 210.5V206.181C480.908 203.109 483.398 200.619 486.47 200.619Z" fill="#FFBB45"/>
<path d="M484.599 235.612H565.695C566.074 235.612 566.437 235.461 566.705 235.194C566.973 234.926 567.123 234.563 567.123 234.184C567.123 233.805 566.973 233.442 566.705 233.174C566.437 232.906 566.074 232.756 565.695 232.756H484.599C484.22 232.756 483.857 232.906 483.589 233.174C483.321 233.442 483.171 233.805 483.171 234.184C483.171 234.563 483.321 234.926 483.589 235.194C483.857 235.461 484.22 235.612 484.599 235.612Z" fill="#262626"/>
<path d="M496.016 253.962H565.695C566.074 253.962 566.437 253.811 566.705 253.543C566.973 253.276 567.123 252.912 567.123 252.534C567.123 252.155 566.973 251.792 566.705 251.524C566.437 251.256 566.074 251.106 565.695 251.106H496.016C495.637 251.106 495.274 251.256 495.006 251.524C494.738 251.792 494.588 252.155 494.588 252.534C494.588 252.912 494.738 253.276 495.006 253.543C495.274 253.811 495.637 253.962 496.016 253.962Z" fill="#262626"/>
<path d="M258.025 436.324C233.293 436.324 213.243 416.403 213.243 391.828C213.243 367.253 233.293 347.331 258.025 347.331C282.758 347.331 302.807 367.253 302.807 391.828C302.807 416.403 282.758 436.324 258.025 436.324Z" fill="#262626"/>
<path d="M302.807 376.291C278.075 376.291 258.025 356.37 258.025 331.795C258.025 307.22 278.075 287.298 302.807 287.298C327.54 287.298 347.589 307.22 347.589 331.795C347.589 356.37 327.54 376.291 302.807 376.291Z" fill="#262626"/>
<path d="M342.149 324.648H369.367C376.067 324.648 382.701 323.328 388.891 320.764C395.081 318.199 400.705 314.441 405.442 309.703C410.18 304.965 413.937 299.34 416.501 293.15C419.064 286.96 420.383 280.325 420.382 273.625V238.811C420.372 230.807 417.186 223.135 411.523 217.48C405.86 211.825 398.183 208.649 390.18 208.651H353.43C340.977 208.651 329.035 213.598 320.23 222.403C311.424 231.209 306.477 243.151 306.477 255.604V289.041C306.481 293.721 307.407 298.355 309.202 302.677C310.996 307 313.625 310.926 316.938 314.233C320.25 317.539 324.182 320.161 328.507 321.948C332.833 323.735 337.469 324.652 342.149 324.648Z" fill="#262626"/>
<path d="M409.122 220.575C409.122 220.575 425.273 222.96 429.514 257.118C430.015 261.29 431.816 265.199 434.662 268.292L437.261 271.105C437.916 271.813 438.289 272.737 438.309 273.701C438.328 274.666 437.994 275.604 437.368 276.338L433.848 280.48L435.626 302.328C435.626 302.328 439.196 325.612 411.785 324.89H394.349V349.045H339.55V307.526C339.55 307.526 327.062 305.384 324.791 293.089C324.218 290.016 324.348 286.852 325.171 283.836C325.995 280.82 327.491 278.03 329.547 275.674C333.638 271.041 340.849 267.106 352.723 272.647C352.716 272.647 399.883 282.115 409.122 220.575Z" fill="white"/>
<path d="M343.284 298.365C344.414 298.365 345.518 298.03 346.458 297.403C347.397 296.775 348.129 295.883 348.561 294.839C348.994 293.795 349.107 292.647 348.886 291.539C348.666 290.431 348.122 289.413 347.323 288.614C346.524 287.815 345.506 287.271 344.398 287.051C343.29 286.831 342.142 286.944 341.098 287.376C340.054 287.808 339.162 288.541 338.535 289.48C337.907 290.419 337.572 291.524 337.572 292.653C337.572 294.168 338.174 295.621 339.245 296.692C340.316 297.763 341.769 298.365 343.284 298.365ZM343.284 289.754C343.849 289.754 344.401 289.922 344.871 290.236C345.34 290.55 345.707 290.996 345.923 291.518C346.139 292.039 346.195 292.614 346.085 293.168C345.975 293.722 345.703 294.231 345.304 294.63C344.904 295.029 344.395 295.301 343.841 295.412C343.287 295.522 342.713 295.465 342.191 295.249C341.669 295.033 341.223 294.667 340.909 294.197C340.596 293.727 340.428 293.175 340.428 292.61C340.428 291.853 340.729 291.127 341.265 290.591C341.8 290.055 342.527 289.754 343.284 289.754Z" fill="#262626"/>
<path d="M347.589 294.06C347.961 294.06 348.318 293.915 348.584 293.657C348.851 293.398 349.006 293.046 349.017 292.675C349.117 289.726 348.239 287.341 346.397 285.585C342.741 282.1 336.637 282.543 336.401 282.564C336.022 282.594 335.671 282.772 335.424 283.061C335.177 283.349 335.054 283.724 335.084 284.103C335.113 284.482 335.292 284.833 335.58 285.08C335.869 285.327 336.244 285.45 336.622 285.42C336.672 285.42 341.735 285.063 344.476 287.677C345.712 288.862 346.276 290.468 346.204 292.596C346.198 292.784 346.228 292.972 346.294 293.148C346.36 293.324 346.461 293.486 346.589 293.623C346.718 293.761 346.873 293.871 347.044 293.949C347.216 294.026 347.401 294.069 347.589 294.074V294.06Z" fill="#262626"/>
<path d="M403.374 272.604C401.509 272.604 399.997 271.092 399.997 269.227C399.997 267.362 401.509 265.85 403.374 265.85C405.239 265.85 406.751 267.362 406.751 269.227C406.751 271.092 405.239 272.604 403.374 272.604Z" fill="#262626"/>
<path d="M415.234 301.086C416.609 301.091 417.971 300.819 419.239 300.286C423.345 298.551 426.101 293.974 426.094 288.905C426.092 288.48 425.997 288.06 425.816 287.675C425.635 287.291 425.372 286.95 425.046 286.678C424.719 286.406 424.337 286.209 423.926 286.1C423.515 285.991 423.085 285.974 422.667 286.049L405.638 289.09C405.202 289.171 404.791 289.349 404.434 289.611C404.078 289.874 403.785 290.214 403.579 290.606C403.373 290.997 403.258 291.431 403.244 291.873C403.229 292.316 403.315 292.756 403.496 293.16C405.68 298.015 410.514 301.086 415.234 301.086ZM423.181 288.826C423.189 288.847 423.189 288.87 423.181 288.89C423.181 292.832 421.131 296.345 418.068 297.644C413.37 299.629 407.958 296.216 406.037 291.932L406.08 291.846L423.116 288.805L423.181 288.826Z" fill="#262626"/>
<path d="M394.799 324.919H368.617C368.385 324.921 368.16 325.002 367.981 325.149C367.802 325.297 367.679 325.501 367.632 325.728C367.585 325.956 367.618 326.192 367.724 326.398C367.831 326.604 368.005 326.768 368.217 326.861L394.799 338.214V324.919Z" fill="#262626"/>
<path d="M394.799 348.488C394.805 347.186 394.391 345.916 393.62 344.867C392.848 343.818 391.76 343.045 390.515 342.662C389.563 342.374 388.585 342.178 387.595 342.076C383.855 341.73 380.108 342.658 376.963 344.711C374.337 342.676 371.111 341.568 367.789 341.561C364.466 341.553 361.235 342.646 358.599 344.668C355.94 342.883 352.833 341.878 349.631 341.769C347.623 341.714 345.621 342.019 343.72 342.669C342.535 343.083 341.509 343.855 340.783 344.879C340.058 345.902 339.669 347.126 339.671 348.381V360.876H394.799V348.488Z" fill="#FFE18B"/>
<path d="M182.234 528.737L497.287 528.473L483.321 400.617C481.997 388.5 476.253 377.297 467.188 369.149C458.123 361 446.372 356.479 434.183 356.449L303.943 356.121C288.747 356.084 273.887 360.588 261.269 369.054C248.65 377.52 238.849 389.563 233.121 403.638C206.703 464.385 187.589 508.738 185.504 514C184.512 516.581 183.717 519.232 183.127 521.933C182.663 524.176 182.365 526.451 182.234 528.737Z" fill="#FFE18B"/>
<path d="M277.553 528.573H439.046V419.124H317.173C315.508 419.124 313.887 419.657 312.547 420.645C311.207 421.633 310.219 423.024 309.726 424.615L277.553 528.573Z" fill="#262626"/>
<path d="M317.195 420.552C317.535 420.557 317.866 420.44 318.127 420.223C318.389 420.006 318.565 419.702 318.623 419.367C319.022 417.003 328.212 361.454 309.041 354.778C308.683 354.653 308.29 354.676 307.948 354.84C307.607 355.005 307.345 355.299 307.22 355.657C307.095 356.015 307.117 356.407 307.282 356.749C307.447 357.09 307.74 357.352 308.098 357.477C322.143 362.361 318.423 403.466 315.802 418.881C315.771 419.067 315.776 419.256 315.817 419.439C315.859 419.623 315.937 419.796 316.045 419.949C316.154 420.102 316.292 420.233 316.451 420.332C316.611 420.432 316.788 420.5 316.973 420.531C317.046 420.544 317.12 420.551 317.195 420.552Z" fill="#262626"/>
<path d="M435.476 420.552C435.798 420.553 436.111 420.444 436.363 420.245C436.616 420.045 436.794 419.766 436.868 419.452C440.597 403.909 440.697 387.717 437.161 372.129C435.879 366.579 434.13 361.148 431.934 355.892C431.782 355.553 431.503 355.287 431.157 355.15C430.811 355.014 430.425 355.017 430.082 355.161C429.739 355.304 429.465 355.575 429.319 355.917C429.173 356.259 429.166 356.645 429.3 356.992C431.432 362.1 433.13 367.378 434.376 372.771C437.816 387.934 437.716 403.685 434.083 418.803C434.041 418.986 434.035 419.175 434.066 419.36C434.097 419.545 434.164 419.722 434.264 419.882C434.363 420.041 434.493 420.179 434.646 420.288C434.799 420.397 434.972 420.474 435.154 420.516C435.26 420.542 435.368 420.554 435.476 420.552Z" fill="#262626"/>
<path d="M455.889 331.259C457.374 329.34 459.077 327.6 460.966 326.076L461.044 326.004C464.575 322.87 467.643 319.249 470.155 315.251C472.382 311.681 473.725 308.026 475.91 302.399C477.002 299.6 477.773 297.401 478.202 296.173C483.292 281.551 486.634 268.442 491.803 266.557C492.582 266.292 493.39 266.127 494.209 266.064C495.3 265.962 496.401 266.079 497.445 266.409C498.49 266.739 499.458 267.274 500.293 267.985C500.846 268.457 501.327 269.008 501.721 269.62C503.72 272.797 502.727 277.402 500.678 286.477C500.35 287.905 500.057 289.083 499.864 289.869L495.716 308.89C495.716 308.89 505.912 311.196 505.341 319.278C505.341 319.278 514.765 313.695 518.421 324.662C518.421 324.662 530.345 325.626 526.882 338.706C526.882 338.706 522.077 356.214 514.958 356.792C514.958 356.792 516.301 384.11 493.602 396.062L456.474 391.392L454.033 380.811C447.607 352.965 450.505 343.933 451.584 340.591C452.626 337.314 454.072 334.179 455.889 331.259Z" fill="white"/>
<path d="M488.79 380.575C489.015 380.576 489.238 380.523 489.439 380.421C489.64 380.32 489.814 380.172 489.947 379.99C494.233 374.17 496.895 367.314 497.658 360.126C499.279 343.704 489.897 331.566 486.055 327.389L489.033 319.707C489.326 318.928 489.704 317.936 490.125 316.951C492.489 311.46 493.552 306.848 493.281 303.235C493.204 302.144 492.907 301.079 492.408 300.106C491.908 299.133 491.217 298.271 490.375 297.573C489.551 296.885 488.595 296.372 487.567 296.066C486.538 295.759 485.458 295.664 484.392 295.788C477.923 296.502 474.053 303.899 473.889 304.206C473.803 304.373 473.75 304.555 473.734 304.742C473.718 304.929 473.74 305.118 473.797 305.297C473.854 305.476 473.945 305.642 474.067 305.785C474.188 305.929 474.336 306.047 474.503 306.134C474.67 306.22 474.852 306.272 475.039 306.288C475.226 306.304 475.415 306.283 475.594 306.226C475.773 306.169 475.939 306.077 476.083 305.956C476.226 305.835 476.344 305.686 476.431 305.52C476.431 305.455 479.765 299.172 484.706 298.629C485.391 298.549 486.086 298.609 486.748 298.805C487.409 299.002 488.024 299.331 488.554 299.772C489.1 300.226 489.548 300.786 489.871 301.418C490.194 302.05 490.385 302.741 490.432 303.449C490.668 306.598 489.683 310.76 487.505 315.823C487.055 316.858 486.662 317.9 486.362 318.679L482.735 328.032L483.371 328.689C486.462 331.895 496.416 343.611 494.795 359.834C494.091 366.51 491.627 372.879 487.655 378.29C487.432 378.596 487.339 378.976 487.397 379.35C487.454 379.723 487.658 380.059 487.962 380.282C488.2 380.465 488.49 380.567 488.79 380.575Z" fill="#262626"/>
<path d="M407.908 521.597C417.577 520.96 427.281 522.113 436.532 524.996C470.954 535.842 486.227 567.629 489.468 574.826L407.908 575.247V521.597Z" fill="white"/>
<path d="M406.48 576.683L491.675 576.24L490.775 574.241C485.449 562.445 469.555 533.907 436.961 523.632C427.544 520.696 417.666 519.522 407.823 520.169L406.48 520.255V576.683ZM487.234 573.412L409.336 573.812V522.947C418.391 522.506 427.453 523.669 436.104 526.381C465.885 535.742 481.286 561.01 487.234 573.412Z" fill="#262626"/>
<path d="M501.564 360.733C502.958 360.747 504.337 360.444 505.598 359.848C507.167 359.079 508.498 357.896 509.446 356.428C509.936 357.025 510.546 357.512 511.238 357.856C512.551 358.478 514.053 358.567 515.429 358.106C515.606 358.041 515.768 357.943 515.906 357.816C516.044 357.69 516.156 357.537 516.235 357.367C516.315 357.197 516.36 357.013 516.368 356.825C516.376 356.638 516.347 356.451 516.283 356.274C516.218 356.098 516.12 355.936 515.993 355.798C515.867 355.66 515.714 355.548 515.544 355.468C515.374 355.389 515.19 355.344 515.002 355.336C514.815 355.328 514.628 355.357 514.451 355.421C513.8 355.617 513.099 355.569 512.481 355.285C512.049 355.008 511.677 354.647 511.387 354.224C511.096 353.801 510.893 353.325 510.788 352.822L509.36 348.174L508.025 352.844C508.025 352.844 507.076 355.964 504.32 357.263C502.363 358.191 499.879 358.027 496.937 356.785C496.763 356.703 496.574 356.657 496.382 356.65C496.19 356.643 495.999 356.674 495.819 356.743C495.64 356.812 495.476 356.916 495.338 357.049C495.199 357.183 495.089 357.343 495.014 357.52C494.939 357.697 494.901 357.887 494.901 358.079C494.901 358.271 494.94 358.461 495.016 358.638C495.091 358.815 495.202 358.974 495.34 359.107C495.479 359.241 495.643 359.344 495.823 359.412C497.629 360.232 499.581 360.681 501.564 360.733Z" fill="#262626"/>
<path d="M509.425 354.678C509.728 354.677 510.022 354.58 510.266 354.4C510.51 354.22 510.69 353.968 510.781 353.679L519.792 325.076C519.906 324.714 519.871 324.322 519.695 323.986C519.52 323.65 519.218 323.397 518.857 323.284C518.495 323.17 518.103 323.205 517.767 323.38C517.431 323.556 517.178 323.857 517.064 324.219L508.089 352.822C508.033 353.001 508.012 353.19 508.029 353.377C508.045 353.564 508.099 353.746 508.185 353.912C508.272 354.079 508.391 354.226 508.535 354.347C508.679 354.467 508.846 354.558 509.025 354.614C509.154 354.654 509.289 354.676 509.425 354.678Z" fill="#262626"/>
<path d="M495.288 348.759C495.582 348.759 495.869 348.667 496.109 348.497C496.349 348.327 496.531 348.087 496.63 347.81L506.662 319.742C506.725 319.566 506.753 319.378 506.744 319.191C506.734 319.003 506.688 318.819 506.608 318.65C506.528 318.48 506.415 318.328 506.276 318.202C506.137 318.075 505.974 317.978 505.798 317.915C505.621 317.851 505.433 317.823 505.246 317.833C505.058 317.842 504.875 317.888 504.705 317.968C504.535 318.048 504.383 318.161 504.257 318.3C504.131 318.439 504.033 318.602 503.97 318.779L493.974 346.853C493.897 347.069 493.873 347.3 493.905 347.527C493.936 347.754 494.021 347.97 494.154 348.156C494.286 348.343 494.461 348.496 494.665 348.601C494.868 348.706 495.094 348.76 495.323 348.759H495.288Z" fill="#262626"/>
<path d="M121.416 190.88H214.843C228.392 190.88 239.376 201.862 239.376 215.409C239.376 228.956 228.392 239.939 214.843 239.939H121.416C107.866 239.939 96.8826 228.956 96.8826 215.409C96.8826 201.862 107.866 190.88 121.416 190.88Z" fill="white"/>
<path d="M121.38 241.374H214.85C221.735 241.374 228.338 238.639 233.207 233.77C238.076 228.901 240.811 222.298 240.811 215.413C240.811 208.528 238.076 201.924 233.207 197.056C228.338 192.187 221.735 189.452 214.85 189.452H121.38C114.495 189.452 107.891 192.187 103.023 197.056C98.1541 201.924 95.419 208.528 95.419 215.413C95.419 222.298 98.1541 228.901 103.023 233.77C107.891 238.639 114.495 241.374 121.38 241.374ZM214.85 192.308C220.978 192.308 226.854 194.742 231.187 199.075C235.521 203.408 237.955 209.285 237.955 215.413C237.955 221.541 235.521 227.418 231.187 231.751C226.854 236.084 220.978 238.518 214.85 238.518H121.38C115.252 238.518 109.375 236.084 105.042 231.751C100.709 227.418 98.275 221.541 98.275 215.413C98.275 209.285 100.709 203.408 105.042 199.075C109.375 194.742 115.252 192.308 121.38 192.308H214.85Z" fill="#262626"/>
<path d="M206.953 223.402C202.54 223.402 198.963 219.825 198.963 215.413C198.963 211 202.54 207.423 206.953 207.423C211.366 207.423 214.943 211 214.943 215.413C214.943 219.825 211.366 223.402 206.953 223.402Z" fill="#F9B800"/>
<path d="M168.133 223.402C163.72 223.402 160.143 219.825 160.143 215.413C160.143 211 163.72 207.423 168.133 207.423C172.545 207.423 176.122 211 176.122 215.413C176.122 219.825 172.545 223.402 168.133 223.402Z" fill="#F9B800"/>
<path d="M129.313 223.402C124.9 223.402 121.323 219.825 121.323 215.413C121.323 211 124.9 207.423 129.313 207.423C133.725 207.423 137.302 211 137.302 215.413C137.302 219.825 133.725 223.402 129.313 223.402Z" fill="#F9B800"/>
<path d="M588.157 325.362H633.532C642.823 325.362 650.354 332.893 650.354 342.183V387.558C650.354 396.849 642.823 404.38 633.532 404.38H588.157C578.867 404.38 571.336 396.849 571.336 387.558V342.183C571.336 332.893 578.867 325.362 588.157 325.362Z" fill="white"/>
<path d="M588.165 405.808H633.532C638.371 405.8 643.01 403.874 646.431 400.452C649.852 397.029 651.776 392.39 651.782 387.551V342.169C651.776 337.33 649.852 332.691 646.431 329.268C643.01 325.846 638.371 323.92 633.532 323.912H588.165C583.324 323.918 578.684 325.843 575.261 329.266C571.839 332.688 569.913 337.329 569.908 342.169V387.53C569.908 392.374 571.83 397.02 575.254 400.447C578.677 403.874 583.321 405.802 588.165 405.808ZM633.532 326.79C637.611 326.793 641.522 328.415 644.408 331.298C647.294 334.181 648.918 338.09 648.926 342.169V387.53C648.922 391.612 647.299 395.526 644.413 398.413C641.528 401.3 637.614 402.925 633.532 402.931H588.165C584.082 402.925 580.168 401.301 577.281 398.413C574.394 395.526 572.769 391.613 572.764 387.53V342.169C572.767 338.086 574.391 334.171 577.279 331.283C580.166 328.396 584.081 326.772 588.165 326.768L633.532 326.79Z" fill="#262626"/>
<path d="M588.807 351.958C589.68 350.355 590.983 349.027 592.57 348.124C599.86 344.047 607.221 346.575 610.827 351.872C614.483 346.51 621.987 343.976 629.391 348.302C630.734 349.084 631.857 350.195 632.654 351.53C636.003 357.156 635.346 362.804 632.533 366.824C632.482 366.896 632.427 366.965 632.368 367.031V367.066C632.311 367.145 628.727 371.3 626.485 373.571C622.205 377.74 617.718 381.691 613.04 385.409C612.435 385.902 611.679 386.171 610.898 386.171C610.118 386.171 609.361 385.902 608.756 385.409C604.722 382.189 601.445 379.397 599.01 377.262C597.15 375.714 595.395 374.044 593.755 372.264C590.257 368.402 582.553 363.339 588.807 351.958Z" fill="#D3B970"/>
<path d="M72.2355 295.688H211.501C224.759 295.688 235.506 306.435 235.506 319.692V472.153C235.506 485.41 224.759 496.158 211.501 496.158H72.2355C58.978 496.158 48.2308 485.41 48.2308 472.153V319.692C48.2308 306.435 58.978 295.688 72.2355 295.688Z" fill="white"/>
<path d="M72.2354 497.586H211.501C218.244 497.578 224.708 494.896 229.476 490.128C234.244 485.36 236.926 478.896 236.934 472.153V319.692C236.926 312.95 234.244 306.485 229.476 301.717C224.708 296.949 218.244 294.267 211.501 294.26H72.2354C65.4926 294.267 59.0281 296.949 54.2602 301.717C49.4923 306.485 46.8103 312.95 46.8027 319.692V472.153C46.8103 478.896 49.4923 485.36 54.2602 490.128C59.0281 494.896 65.4926 497.578 72.2354 497.586ZM211.501 297.116C217.487 297.123 223.225 299.504 227.457 303.737C231.689 307.969 234.07 313.707 234.078 319.692V472.153C234.07 478.138 231.689 483.876 227.457 488.109C223.225 492.341 217.487 494.722 211.501 494.73H72.2354C66.25 494.722 60.512 492.341 56.2797 488.109C52.0474 483.876 49.6663 478.138 49.6588 472.153V319.692C49.6644 313.706 52.0449 307.967 56.2776 303.735C60.5103 299.502 66.2495 297.121 72.2354 297.116H211.501Z" fill="#262626"/>
<path d="M188.717 371.079H207.346C212.752 371.079 217.135 375.462 217.135 380.868V399.496C217.135 404.903 212.752 409.285 207.346 409.285H188.717C183.311 409.285 178.928 404.903 178.928 399.496V380.868C178.928 375.462 183.311 371.079 188.717 371.079Z" fill="#FFF1C9"/>
<path d="M188.717 429.077H207.346C212.752 429.077 217.135 433.46 217.135 438.866V457.495C217.135 462.901 212.752 467.283 207.346 467.283H188.717C183.311 467.283 178.928 462.901 178.928 457.495V438.866C178.928 433.46 183.311 429.077 188.717 429.077Z" fill="#FFF1C9"/>
<path d="M69.108 380.889H155.345C155.724 380.889 156.087 380.739 156.355 380.471C156.622 380.203 156.773 379.84 156.773 379.461C156.773 379.083 156.622 378.72 156.355 378.452C156.087 378.184 155.724 378.033 155.345 378.033H69.108C68.7293 378.033 68.3661 378.184 68.0983 378.452C67.8305 378.72 67.68 379.083 67.68 379.461C67.68 379.84 67.8305 380.203 68.0983 380.471C68.3661 380.739 68.7293 380.889 69.108 380.889Z" fill="#262626"/>
<path d="M102.188 401.917H155.345C155.724 401.917 156.087 401.766 156.355 401.499C156.622 401.231 156.773 400.868 156.773 400.489C156.773 400.11 156.622 399.747 156.355 399.479C156.087 399.211 155.724 399.061 155.345 399.061H102.188C101.809 399.061 101.446 399.211 101.178 399.479C100.91 399.747 100.76 400.11 100.76 400.489C100.76 400.868 100.91 401.231 101.178 401.499C101.446 401.766 101.809 401.917 102.188 401.917Z" fill="#262626"/>
<path d="M69.108 439.095H155.345C155.724 439.095 156.087 438.944 156.355 438.676C156.622 438.409 156.773 438.045 156.773 437.667C156.773 437.288 156.622 436.925 156.355 436.657C156.087 436.389 155.724 436.239 155.345 436.239H69.108C68.7293 436.239 68.3661 436.389 68.0983 436.657C67.8305 436.925 67.68 437.288 67.68 437.667C67.68 438.045 67.8305 438.409 68.0983 438.676C68.3661 438.944 68.7293 439.095 69.108 439.095Z" fill="#262626"/>
<path d="M102.188 460.122H155.345C155.724 460.122 156.087 459.972 156.355 459.704C156.622 459.436 156.773 459.073 156.773 458.694C156.773 458.315 156.622 457.952 156.355 457.684C156.087 457.416 155.724 457.266 155.345 457.266H102.188C101.809 457.266 101.446 457.416 101.178 457.684C100.91 457.952 100.76 458.315 100.76 458.694C100.76 459.073 100.91 459.436 101.178 459.704C101.446 459.972 101.809 460.122 102.188 460.122Z" fill="#262626"/>
<path d="M183.063 322.556C183.658 321.457 184.551 320.549 185.64 319.935C190.638 317.136 195.679 318.871 198.149 322.506C200.655 318.829 205.796 317.094 210.859 320.042C211.776 320.583 212.543 321.347 213.086 322.263C215.385 326.111 214.935 329.981 213.008 332.737C212.974 332.788 212.935 332.836 212.893 332.88C212.851 332.937 210.394 335.786 208.859 337.343C207.546 338.663 204.304 341.691 199.649 345.446C199.235 345.78 198.72 345.961 198.189 345.961C197.657 345.961 197.142 345.78 196.728 345.446C193.965 343.233 191.73 341.32 190.053 339.863C188.791 338.802 187.599 337.662 186.483 336.45C184.055 333.83 178.771 330.36 183.063 322.556Z" fill="#D3B970"/>
<path d="M243.345 589.849H397.998C400.358 589.85 402.694 589.386 404.875 588.483C407.055 587.581 409.036 586.258 410.705 584.59C412.374 582.921 413.698 580.941 414.601 578.761C415.504 576.581 415.969 574.244 415.969 571.884V542.232C415.967 531.653 411.764 521.507 404.283 514.027C396.803 506.546 386.657 502.343 376.078 502.341H208.631C201.624 502.341 194.905 505.124 189.95 510.078C184.996 515.033 182.213 521.752 182.213 528.759C182.216 536.784 183.799 544.73 186.873 552.143C189.947 559.557 194.45 566.292 200.127 571.965C205.804 577.637 212.542 582.137 219.958 585.205C227.373 588.274 235.32 589.851 243.345 589.849Z" fill="#FFE18B"/>
<path d="M482.5 592.683C488.902 592.551 495.216 591.158 501.08 588.585C506.944 586.012 512.244 582.309 516.677 577.688C521.11 573.067 524.589 567.618 526.916 561.652C529.243 555.686 530.371 549.32 530.238 542.917L527.575 414.79C527.419 407.432 524.348 400.437 519.037 395.343C513.725 390.248 506.608 387.471 499.25 387.622L457.231 388.501C449.879 388.66 442.891 391.732 437.803 397.042C432.715 402.352 429.944 409.465 430.099 416.818L432.734 544.945C432.867 551.348 434.259 557.661 436.832 563.525C439.405 569.389 443.108 574.689 447.729 579.122C452.35 583.555 457.8 587.034 463.766 589.361C469.732 591.688 476.097 592.817 482.5 592.683Z" fill="#FFE18B"/>
<path d="M253.827 502.334H292.597C292.976 502.334 293.339 502.183 293.607 501.915C293.875 501.648 294.025 501.284 294.025 500.906C294.025 500.527 293.875 500.164 293.607 499.896C293.339 499.628 292.976 499.478 292.597 499.478H253.827C253.448 499.478 253.085 499.628 252.817 499.896C252.549 500.164 252.399 500.527 252.399 500.906C252.399 501.284 252.549 501.648 252.817 501.915C253.085 502.183 253.448 502.334 253.827 502.334Z" fill="#262626"/>
<path d="M298.595 294.738C300.647 294.738 302.653 294.13 304.36 292.99C306.067 291.85 307.398 290.23 308.184 288.334C308.97 286.439 309.177 284.352 308.778 282.339C308.38 280.326 307.393 278.476 305.943 277.023C304.493 275.571 302.646 274.58 300.633 274.177C298.621 273.774 296.534 273.977 294.637 274.759C292.739 275.542 291.117 276.869 289.973 278.573C288.83 280.278 288.217 282.283 288.213 284.335C288.211 285.7 288.478 287.052 288.999 288.314C289.52 289.575 290.284 290.722 291.248 291.688C292.213 292.654 293.358 293.421 294.618 293.944C295.879 294.467 297.23 294.737 298.595 294.738ZM298.595 276.831C300.084 276.831 301.54 277.273 302.778 278.101C304.016 278.929 304.981 280.105 305.55 281.482C306.118 282.858 306.266 284.372 305.974 285.833C305.682 287.293 304.963 288.634 303.909 289.686C302.854 290.737 301.511 291.452 300.05 291.74C298.589 292.028 297.075 291.876 295.7 291.303C294.325 290.73 293.151 289.762 292.327 288.522C291.503 287.282 291.065 285.825 291.069 284.335C291.077 282.344 291.873 280.436 293.283 279.03C294.693 277.624 296.603 276.833 298.595 276.831Z" fill="#262626"/>
<path d="M429.899 420.552C430.278 420.552 430.641 420.402 430.909 420.134C431.177 419.866 431.327 419.503 431.327 419.124C431.513 390.628 454.818 390.007 455.796 390.007C456.175 390.007 456.538 389.857 456.806 389.589C457.074 389.321 457.224 388.958 457.224 388.579C457.224 388.2 457.074 387.837 456.806 387.569C456.538 387.302 456.175 387.151 455.796 387.151C455.525 387.151 428.707 387.772 428.5 419.131C428.5 419.51 428.65 419.873 428.918 420.141C429.186 420.409 429.549 420.559 429.928 420.559L429.899 420.552Z" fill="#262626"/>
<path d="M346.419 357.963H390.687C391.065 357.963 391.428 357.812 391.696 357.545C391.964 357.277 392.115 356.914 392.115 356.535C392.115 356.156 391.964 355.793 391.696 355.525C391.428 355.257 391.065 355.107 390.687 355.107H346.419C346.04 355.107 345.677 355.257 345.409 355.525C345.141 355.793 344.991 356.156 344.991 356.535C344.991 356.914 345.141 357.277 345.409 357.545C345.677 357.812 346.04 357.963 346.419 357.963Z" fill="#262626"/>
<path d="M388.373 584.301C388.752 584.301 389.115 584.151 389.383 583.883C389.651 583.615 389.801 583.252 389.801 582.873V518.099C389.801 517.72 389.651 517.357 389.383 517.089C389.115 516.821 388.752 516.671 388.373 516.671C387.994 516.671 387.631 516.821 387.363 517.089C387.096 517.357 386.945 517.72 386.945 518.099V582.873C386.945 583.252 387.096 583.615 387.363 583.883C387.631 584.151 387.994 584.301 388.373 584.301Z" fill="#262626"/>
<path d="M447.214 414.483H511.981C512.36 414.483 512.723 414.333 512.991 414.065C513.258 413.797 513.409 413.434 513.409 413.055C513.409 412.676 513.258 412.313 512.991 412.045C512.723 411.778 512.36 411.627 511.981 411.627H447.214C446.835 411.627 446.472 411.778 446.204 412.045C445.936 412.313 445.786 412.676 445.786 413.055C445.786 413.434 445.936 413.797 446.204 414.065C446.472 414.333 446.835 414.483 447.214 414.483Z" fill="#262626"/>
<path d="M602.745 511.309C603.037 511.309 603.323 511.22 603.563 511.052C603.803 510.885 603.986 510.648 604.087 510.373C612.369 487.782 629.491 469.44 629.662 469.261C629.923 468.986 630.063 468.618 630.052 468.239C630.042 467.86 629.881 467.501 629.605 467.241C629.33 466.98 628.962 466.84 628.583 466.851C628.204 466.861 627.845 467.022 627.585 467.298C627.413 467.483 609.892 486.233 601.402 509.424C601.273 509.779 601.29 510.171 601.45 510.513C601.609 510.856 601.897 511.121 602.252 511.252C602.411 511.301 602.578 511.321 602.745 511.309Z" fill="#262626"/>
<path d="M594.662 513.636C595.041 513.636 595.404 513.486 595.672 513.218C595.94 512.95 596.09 512.587 596.09 512.208V492.652C596.09 492.273 595.94 491.91 595.672 491.642C595.404 491.374 595.041 491.224 594.662 491.224C594.283 491.224 593.92 491.374 593.652 491.642C593.385 491.91 593.234 492.273 593.234 492.652V512.208C593.234 512.587 593.385 512.95 593.652 513.218C593.92 513.486 594.283 513.636 594.662 513.636Z" fill="#262626"/>
<path d="M552.586 541.618C552.588 536.943 554.446 532.46 557.751 529.155C561.057 525.849 565.54 523.991 570.215 523.989H574.142V510.673H622.737V523.996H626.664C631.339 523.996 635.823 525.854 639.129 529.16C642.435 532.466 644.292 536.95 644.292 541.625C644.287 546.296 642.427 550.774 639.121 554.074C635.815 557.374 631.335 559.227 626.664 559.225C628.978 559.224 631.27 559.679 633.409 560.565C635.548 561.45 637.491 562.748 639.128 564.384C640.766 566.02 642.064 567.963 642.95 570.102C643.836 572.24 644.292 574.532 644.292 576.847C644.293 579.162 643.838 581.455 642.952 583.594C642.067 585.733 640.768 587.677 639.131 589.314C637.494 590.951 635.55 592.25 633.411 593.135C631.272 594.021 628.979 594.476 626.664 594.475H570.215C565.539 594.475 561.055 592.618 557.749 589.312C554.443 586.006 552.586 581.522 552.586 576.847C552.588 572.173 554.446 567.69 557.752 564.386C561.058 561.082 565.541 559.225 570.215 559.225C565.543 559.225 561.062 557.371 557.757 554.069C554.452 550.768 552.592 546.29 552.586 541.618Z" fill="#F9B800"/>
<path d="M569.472 560.753H589.386C589.764 560.753 590.128 560.603 590.395 560.335C590.663 560.067 590.814 559.704 590.814 559.325C590.814 558.946 590.663 558.583 590.395 558.315C590.128 558.048 589.764 557.897 589.386 557.897H569.472C569.093 557.897 568.73 558.048 568.462 558.315C568.195 558.583 568.044 558.946 568.044 559.325C568.044 559.704 568.195 560.067 568.462 560.335C568.73 560.603 569.093 560.753 569.472 560.753Z" fill="#262626"/>
<path d="M617.296 560.653H627.72C628.099 560.653 628.462 560.503 628.73 560.235C628.998 559.967 629.148 559.604 629.148 559.225C629.148 558.846 628.998 558.483 628.73 558.215C628.462 557.948 628.099 557.797 627.72 557.797H617.296C616.917 557.797 616.554 557.948 616.286 558.215C616.018 558.483 615.868 558.846 615.868 559.225C615.868 559.604 616.018 559.967 616.286 560.235C616.554 560.503 616.917 560.653 617.296 560.653Z" fill="#262626"/>
<path d="M598.432 514.814C584.768 514.814 573.692 512.506 573.692 509.659C573.692 506.812 584.768 504.504 598.432 504.504C612.096 504.504 623.172 506.812 623.172 509.659C623.172 512.506 612.096 514.814 598.432 514.814Z" fill="#262626"/>
<path d="M594.662 492.652C588.215 492.652 582.988 487.425 582.988 480.978C582.988 474.531 588.215 469.304 594.662 469.304C601.109 469.304 606.336 474.531 606.336 480.978C606.336 487.425 601.109 492.652 594.662 492.652Z" fill="#FFBB45"/>
<path d="M632.825 476.016C625.917 476.016 620.316 470.415 620.316 463.506C620.316 456.598 625.917 450.997 632.825 450.997C639.734 450.997 645.335 456.598 645.335 463.506C645.335 470.415 639.734 476.016 632.825 476.016Z" fill="#FFBB45"/>
<path d="M482.228 284.007C483.656 280.108 485.72 275.103 488.619 270.919C491.075 267.349 493.881 265.85 496.965 266.385C497.857 266.492 498.715 266.794 499.476 267.27C500.238 267.747 500.885 268.386 501.371 269.141C503.805 273.047 502.185 279.937 501.371 282.707L501.264 283.064L503.984 283.928L504.113 283.507C505.248 279.594 506.726 272.333 503.791 267.628C503.096 266.528 502.168 265.594 501.072 264.892C499.977 264.19 498.74 263.737 497.451 263.565C493.231 262.851 489.361 264.807 486.263 269.277C483.164 273.747 481.057 278.944 479.544 282.993L482.228 284.007Z" fill="#262626"/>
</svg>
